<svg xmlns="http://www.w3.org/2000/svg" width="31.333" height="31.333" viewBox="0 0 31.333 31.333"><defs><style>.a{fill:#0e1287;}</style></defs><path class="a" d="M12.967,17.275a1.958,1.958,0,1,0,1.958,1.958A1.959,1.959,0,0,0,12.967,17.275Zm9.4,0a1.958,1.958,0,1,0,1.958,1.958A1.959,1.959,0,0,0,22.367,17.275ZM17.667,2A15.667,15.667,0,1,0,33.333,17.667,15.672,15.672,0,0,0,17.667,2Zm0,28.2A12.55,12.55,0,0,1,5.133,17.667a12.7,12.7,0,0,1,.078-1.347,15.763,15.763,0,0,0,8.162-8.413,15.626,15.626,0,0,0,12.784,6.627,15.291,15.291,0,0,0,3.525-.407A12.514,12.514,0,0,1,17.667,30.2Z" transform="translate(-2 -2)"/></svg>