<svg xmlns="http://www.w3.org/2000/svg" xmlns:xlink="http://www.w3.org/1999/xlink" width="157" height="155" viewBox="0 0 157 155"><defs><style>.a{fill:#fff;}.b,.c{fill:#6a6a6a;}.b{font-size:13px;font-family:Lato-Regular, Lato;}.d{filter:url(#a);}</style><filter id="a" x="0" y="0" width="157" height="155" filterUnits="userSpaceOnUse"><feOffset dy="3" input="SourceAlpha"/><feGaussianBlur stdDeviation="3" result="b"/><feFlood flood-opacity="0"/><feComposite operator="in" in2="b"/><feComposite in="SourceGraphic"/></filter></defs><g transform="translate(-765 -466)"><g class="d" transform="matrix(1, 0, 0, 1, 765, 466)"><rect class="a" width="139" height="137" rx="13" transform="translate(9 6)"/></g><g transform="translate(-2 -4)"><text class="b" transform="translate(846 566)"><tspan x="-25.331" y="0">Solution </tspan><tspan x="-38.506" y="16">Development</tspan></text><g transform="translate(238.904 324.963)"><path class="c" d="M614.372,209.676H600.617c0-.378,0-.742,0-1.1,0-.726-.012-1.451.007-2.176a.5.5,0,0,0-.294-.507,14.156,14.156,0,0,1-6.9-9.442,14.388,14.388,0,1,1,21.328,9.379.662.662,0,0,0-.4.679C614.388,207.547,614.372,208.59,614.372,209.676ZM613.13,208.4c0-.83.036-1.632-.014-2.427a.935.935,0,0,1,.6-1.013,13.126,13.126,0,1,0-19.143-9.187,12.88,12.88,0,0,0,6.908,9.3.609.609,0,0,1,.389.64c-.027.887-.009,1.774-.009,2.683Z" transform="translate(0 0)"/><path class="c" d="M616.574,236.312a3.712,3.712,0,0,1-2.777,3.006,6.394,6.394,0,0,1-3.134,0,3.612,3.612,0,0,1-2.69-2.694c-.024-.084-.044-.169-.076-.292H605.38V235.1h13.707v1.209Zm-7.339.033a2.316,2.316,0,0,0,1.987,1.81,11.305,11.305,0,0,0,2.054,0,2.313,2.313,0,0,0,1.974-1.807Z" transform="translate(-4.743 -21.646)"/><path class="c" d="M619.114,231.038v1.189H605.4v-1.189Z" transform="translate(-4.75 -20.076)"/><path class="c" d="M606.393,200c-.606-.156-1.152-.314-1.706-.431-.263-.055-.351-.154-.346-.427.018-.941.016-1.883,0-2.824,0-.252.073-.355.32-.406.46-.093.913-.222,1.368-.34.1-.027.2-.069.349-.119-.317-.53-.6-1.025-.907-1.5a.337.337,0,0,1,.05-.514c.724-.7,1.432-1.411,2.146-2.118a1.336,1.336,0,0,1,.114-.087l1.8,1.066.531-2.055h3.464l.526,2.052,1.818-1.079c.782.782,1.567,1.558,2.333,2.351.055.057.023.257-.033.354-.287.506-.595,1-.934,1.564.464.118.875.224,1.287.326.76.188.761.188.761.973s-.013,1.578.007,2.366c.007.274-.085.373-.345.429-.554.118-1.1.273-1.708.427.338.565.65,1.07.94,1.588a.389.389,0,0,1,0,.352c-.76.784-1.537,1.552-2.317,2.332L614.1,203.2c-.1.386-.189.72-.27,1.057-.24,1-.239,1-1.244,1-.7,0-1.4-.015-2.1.007-.295.009-.425-.072-.484-.373-.107-.543-.263-1.077-.417-1.69l-1.836,1.082c-.774-.78-1.548-1.551-2.305-2.338a.391.391,0,0,1,.009-.352C605.741,201.068,606.054,200.564,606.393,200Zm9.294,2.68a.585.585,0,0,0,.1-.058q.3-.294.6-.591c.407-.406.445-.435.106-.885a1.452,1.452,0,0,1-.174-1.91c.014-.02.009-.056.025-.071.108-.1.2-.256.333-.3.385-.126.786-.2,1.176-.314.091-.026.231-.115.234-.18.02-.465.011-.931.011-1.383a5.252,5.252,0,0,0-.682-.176c-.666-.075-1.172-.326-1.3-1.059-.01-.06-.074-.114-.075-.173a1.053,1.053,0,0,1,.024-.482c.219-.424.48-.827.753-1.284-.144-.121-.279-.219-.4-.335-.7-.695-.715-.72-1.545-.176a1.155,1.155,0,0,1-1.233.107,1.189,1.189,0,0,1-.819-.982c-.2-.951-.222-.948-1.168-.939-.721.006-.589-.09-.716.589-.131.706-.347,1.276-1.146,1.41a.175.175,0,0,0-.069.031.445.445,0,0,1-.583-.01,8.285,8.285,0,0,0-.98-.586.42.42,0,0,0-.374.04c-.321.269-.613.57-.923.865a5.873,5.873,0,0,0,.374.622,1.252,1.252,0,0,1,.163,1.667c-.036.049-.03.131-.07.175-.109.118-.214.281-.353.324-.455.144-.924.244-1.4.364v.906c0,.608-.007.65.586.748a1.5,1.5,0,0,1,1.447,1.173.761.761,0,0,1-.053.694c-.24.357-.448.736-.7,1.157.316.3.618.608.946.886a.385.385,0,0,0,.346.021c.359-.189.694-.426,1.055-.61a.645.645,0,0,1,.441-.019,4.229,4.229,0,0,1,.77.324.6.6,0,0,1,.277.3,10.9,10.9,0,0,1,.3,1.142c.043.213.132.3.355.292a7.956,7.956,0,0,1,.953,0c.246.017.332-.092.38-.309.084-.384.185-.766.289-1.144a.4.4,0,0,1,.145-.241,10.935,10.935,0,0,1,1.053-.437c.082-.028.213.037.3.09C614.877,202.19,615.278,202.435,615.687,202.68Z" transform="translate(-4.341 -4.326)"/><path class="c" d="M633.858,202.446h1.271l-.076,1.33-1.195-.133Z" transform="translate(-15.737 -9.038)"/><path class="c" d="M602.358,190.581l-.971-.778.848-.955.845.925Z" transform="translate(-3.201 -3.787)"/><path class="c" d="M600.151,212.373l1.055-.67.7.974-.982.779Z" transform="translate(-2.724 -12.611)"/><path class="c" d="M603.876,216.548l-.98-.877.922-.838.832.734Z" transform="translate(-3.784 -13.82)"/><path class="c" d="M606.924,217.146l1.04.582-.534,1.123-1.171-.636Z" transform="translate(-5.082 -14.713)"/><path class="c" d="M623.392,218.077l.54,1.123-1.22.516-.416-1.173Z" transform="translate(-11.273 -15.072)"/><path class="c" d="M634.9,199.384l-1.239.141-.209-1.163,1.213-.289Z" transform="translate(-15.578 -7.349)"/><path class="c" d="M618.505,219.573l1.173-.2.275,1.218-1.3.221Z" transform="translate(-9.81 -15.573)"/><path class="c" d="M599.083,193.356l.634-1.166,1.06.656-.567,1.049Z" transform="translate(-2.312 -5.078)"/><path class="c" d="M613.646,184.444l-1.173.209-.289-1.206,1.3-.245Z" transform="translate(-7.369 -1.608)"/><path class="c" d="M599.2,196.506l-.325,1.141-1.219-.271.364-1.278Z" transform="translate(-1.759 -6.587)"/><path class="c" d="M625.789,216.71l.964-.689.784.97-1.08.777Z" transform="translate(-12.622 -14.278)"/><path class="c" d="M611.742,219.168l-.279,1.214-1.276-.359.407-1.183Z" transform="translate(-6.599 -15.367)"/><path class="c" d="M621.511,185.1l-1.136-.328.267-1.214,1.282.36Z" transform="translate(-10.532 -1.744)"/><path class="c" d="M630.061,191.1l.976-.785.783,1.081-1.052.671Z" transform="translate(-14.271 -4.356)"/><path class="c" d="M598.544,204.436l.2,1.168-1.216.288-.22-1.309Z" transform="translate(-1.627 -9.806)"/><path class="c" d="M598.444,201.629h-1.268l.071-1.3,1.2.131Z" transform="translate(-1.575 -8.221)"/><path class="c" d="M609.74,185.36l-1.1.455-.55-1.123,1.224-.514Z" transform="translate(-5.79 -1.985)"/><path class="c" d="M624.569,184.979l1.161.637-.657,1.057-1.048-.577Z" transform="translate(-11.941 -2.294)"/><path class="c" d="M606.186,187.133l-.968.691-.783-.963,1.079-.782Z" transform="translate(-4.378 -2.719)"/><path class="c" d="M634.11,207.876l-1.181-.413.325-1.131,1.217.26Z" transform="translate(-15.378 -10.537)"/><path class="c" d="M598.263,208.633l1.184-.414.454,1.1-1.114.54Z" transform="translate(-1.995 -11.266)"/><path class="c" d="M630.619,214.048l-.853.955-.866-.894.739-.839Z" transform="translate(-13.823 -13.217)"/><path class="c" d="M632.163,194.532l1.112-.546.526,1.22-1.184.422Z" transform="translate(-15.083 -5.771)"/><path class="c" d="M631.821,209.973l1.123.542-.636,1.166-1.059-.661Z" transform="translate(-14.73 -11.944)"/><path class="c" d="M614.54,219.688l1.163.071v1.182h-1.295Z" transform="translate(-8.228 -15.694)"/><path class="c" d="M629.076,188.136l-.876.886-.871-.777.767-.969Z" transform="translate(-13.216 -3.18)"/><path class="c" d="M617.724,184.443l-1.143-.074V183.2h1.28Z" transform="translate(-9.067 -1.605)"/><path class="c" d="M614.63,203.577a3.04,3.04,0,1,1,3.055-3.013A3.042,3.042,0,0,1,614.63,203.577Zm1.8-3.039a1.79,1.79,0,1,0-1.781,1.8A1.794,1.794,0,0,0,616.426,200.538Z" transform="translate(-7.139 -7.127)"/></g></g></g></svg>