<svg xmlns="http://www.w3.org/2000/svg" width="156.237" height="89.387" viewBox="0 0 156.237 89.387"><defs><style>.a{fill:#0e1287;}.b{fill:#c211a1;}</style></defs><g transform="translate(-928 -400)"><g transform="translate(928 400)"><path class="a" d="M240.486,420.11H184.7c.09-1.391.156-2.751.268-4.107a108.478,108.478,0,0,1,4.5-24.442,40.806,40.806,0,0,1,6.825-13.554c1.112-1.367,2.427-2.57,3.646-3.845a18.159,18.159,0,0,0,25.3.063c1.083,1.1,2.244,2.14,3.242,3.318,3.411,4.023,5.482,8.763,7.106,13.715a106,106,0,0,1,4.5,23.587C240.242,416.554,240.348,418.266,240.486,420.11Z" transform="translate(-151.275 -330.728)"/><path class="a" d="M271.325,420.113c.264-2.949.467-5.811.786-8.661a97.668,97.668,0,0,1,4.495-21.212,38.955,38.955,0,0,1,6.323-12.151c1.135-1.392,2.462-2.626,3.7-3.931a18.127,18.127,0,0,0,25.216.145,23.893,23.893,0,0,1,5.609,6.326,52.971,52.971,0,0,1,6.081,14.846,122.4,122.4,0,0,1,3.609,24.234,2.51,2.51,0,0,1-.049.4Z" transform="translate(-170.908 -330.727)"/><path class="a" d="M141.482,398.434a131,131,0,0,1,2.3-18.929,70.17,70.17,0,0,1,5.171-16.48,28.994,28.994,0,0,1,6.888-9.6c.327-.288.665-.563,1-.841a18.091,18.091,0,0,0,25.159.007c.921.9,1.855,1.8,2.771,2.717a.758.758,0,0,1,.184.5,18.162,18.162,0,0,0,2.8,10.372c-.047.117-.054.192-.1.227-5.489,4.492-8.629,10.5-10.99,17.013a89.25,89.25,0,0,0-3.837,15.01Z" transform="translate(-141.482 -325.838)"/><path class="a" d="M262.248,398.459h-7.082c-.456-2.139-.869-4.274-1.368-6.388a61.041,61.041,0,0,0-6.919-18.012,29.251,29.251,0,0,0-6-7.143c-.212-.18-.409-.377-.66-.611a17.3,17.3,0,0,0,2.558-6.49c.181-1.168.193-2.361.34-3.535a2.14,2.14,0,0,1,.444-1.147c.848-.907,1.773-1.742,2.7-2.641a17.934,17.934,0,0,0,25.152.047c.957.94,1.913,1.861,2.841,2.81a.9.9,0,0,1,.155.6A17.873,17.873,0,0,0,277.2,366.16c-.031.09-.033.169-.073.2-5.168,4.234-8.277,9.837-10.61,15.955a86.838,86.838,0,0,0-4.092,15.259C262.377,397.849,262.317,398.12,262.248,398.459Z" transform="translate(-163.858 -325.817)"/><path class="b" d="M289.486,353.614a13.977,13.977,0,1,1,13.867,14.021A13.942,13.942,0,0,1,289.486,353.614Z" transform="translate(-175.023 -322.915)"/><path class="b" d="M230.7,353.682a13.977,13.977,0,1,1-13.907-13.993A13.945,13.945,0,0,1,230.7,353.682Z" transform="translate(-155.365 -322.915)"/><path class="b" d="M260.239,318.007a13.979,13.979,0,1,1-13.972,14.023A13.981,13.981,0,0,1,260.239,318.007Z" transform="translate(-165.229 -318.002)"/><path class="b" d="M159.555,331.907A13.972,13.972,0,1,1,173.4,345.961,13.951,13.951,0,0,1,159.555,331.907Z" transform="translate(-145.578 -318)"/></g></g></svg>