<svg xmlns="http://www.w3.org/2000/svg" width="32.911" height="23.5" viewBox="0 0 32.911 23.5"><defs><style>.a{fill:#0e1287;}</style></defs><path class="a" d="M-233.488-16.246V1.07a.4.4,0,0,0-.011.053,3.291,3.291,0,0,1-.3,1.179,3.48,3.48,0,0,1-2.512,2c-.144.032-.292.046-.438.069h-9.832a.7.7,0,0,0-.074-.007l-1.33,0-5.231,0q-4.834,0-9.667-.007a3.453,3.453,0,0,1-.62-.052,3.441,3.441,0,0,1-2.268-1.455A3.456,3.456,0,0,1-266.4.812q0-8.2,0-16.4a3.656,3.656,0,0,1,.025-.424,3.4,3.4,0,0,1,.961-2.029,3.446,3.446,0,0,1,2.559-1.08q7.213,0,14.425,0H-237a3.311,3.311,0,0,1,.836.092,3.472,3.472,0,0,1,2.592,2.472C-233.538-16.459-233.515-16.352-233.488-16.246Zm-29.418-1.022-.014.022a.472.472,0,0,1,.061.044l1.578,1.573L-251.1-5.463l.8.794a.576.576,0,0,0,.531.172.659.659,0,0,0,.354-.208l8.95-8.947,3.549-3.548c.019-.019.038-.04.064-.068Zm9.563,12.024-7.845,7.85h22.418l-7.736-7.736a.814.814,0,0,1-.052.063l-2.88,2.879a.582.582,0,0,1-.879,0l-2.954-2.97C-253.3-5.187-253.321-5.218-253.343-5.245Zm18.092-11.115-9.985,9.989c.016.013.038.03.057.049l4.47,4.478,4.31,4.318a.087.087,0,0,0,.1.029,1.347,1.347,0,0,0,.9-.851,2.764,2.764,0,0,0,.144-.977q0-8.476,0-16.953Zm-19.365,9.909-9.818-9.82v.067q0,8.637,0,17.274a2.743,2.743,0,0,0,.039.45,1.151,1.151,0,0,0,.728.954.105.105,0,0,0,.135-.028q4.432-4.434,8.867-8.865A.21.21,0,0,1-254.617-6.451Z" transform="translate(266.399 19.126)"/></svg>