<svg xmlns="http://www.w3.org/2000/svg" width="32.634" height="34.934" viewBox="0 0 32.634 34.934"><defs><style>.a{fill:#0e1287;}</style></defs><g transform="translate(264.394 -202.943)"><path class="a" d="M-241.879,252.623a11.846,11.846,0,0,1-3.776-.633,25.506,25.506,0,0,1-5.1-2.253,27.7,27.7,0,0,1-4.181-3.127,41.077,41.077,0,0,1-5.373-5.779,19.588,19.588,0,0,1-1.844-2.957,22.134,22.134,0,0,1-1.524-3.632,16.553,16.553,0,0,1-.621-3.189,10.4,10.4,0,0,1-.057-2.288,6.786,6.786,0,0,1,3.732-5.422,2.854,2.854,0,0,1,1.447-.286,10.684,10.684,0,0,1,2.137.267A2.229,2.229,0,0,1-255.273,225c.5,1.785.961,3.579,1.427,5.372a2.705,2.705,0,0,1-.089,1.8,2.636,2.636,0,0,1-.577.731c-.535.568-1.076,1.131-1.609,1.7a1.1,1.1,0,0,0-.111,1.31,6.807,6.807,0,0,0,.506.758,31.479,31.479,0,0,0,7.033,7.083,10.723,10.723,0,0,0,.991.644,1.254,1.254,0,0,0,1.56-.222c.608-.577,1.209-1.164,1.844-1.709a2.278,2.278,0,0,1,2.179-.458c1.819.5,3.633,1.01,5.449,1.519a2.129,2.129,0,0,1,1.283,1.136,3.626,3.626,0,0,1,.355,1.02,10.888,10.888,0,0,1,.235,1.769,2.986,2.986,0,0,1-.414,1.6,6.677,6.677,0,0,1-2.387,2.406,7.6,7.6,0,0,1-4.134,1.158Z" transform="translate(0 -16.87)"/><path class="a" d="M-161.615,203.991a1.02,1.02,0,0,1,1.2-1.035,16.1,16.1,0,0,1,4.341,1.306,18.206,18.206,0,0,1,4.749,3.19,19.126,19.126,0,0,1,4.2,5.572,16.592,16.592,0,0,1,1.56,4.812,1.025,1.025,0,0,1-.832,1.192,1.027,1.027,0,0,1-1.226-.846,15.744,15.744,0,0,0-4.189-8.293,16.379,16.379,0,0,0-4.56-3.447,14.278,14.278,0,0,0-4.364-1.422A1.013,1.013,0,0,1-161.615,203.991Z" transform="translate(-86.206)"/><path class="a" d="M-163.542,231.248c.3.093.583.173.862.268a15.836,15.836,0,0,1,4.764,2.564,14.965,14.965,0,0,1,5.106,7.334,1.847,1.847,0,0,1,.144.794,1.029,1.029,0,0,1-.974.9.994.994,0,0,1-1.053-.7,12.651,12.651,0,0,0-.9-2.3,13.3,13.3,0,0,0-2.342-3.247,13.706,13.706,0,0,0-5.872-3.513.987.987,0,0,1-.753-.853,1,1,0,0,1,.49-1.051A2.831,2.831,0,0,1-163.542,231.248Z" transform="translate(-83.728 -23.741)"/><path class="a" d="M-161.655,269.446a1,1,0,0,1-.949-.625,9.04,9.04,0,0,0-4.284-4.5,5.375,5.375,0,0,0-.591-.246,1.041,1.041,0,0,1-.609-1.353,1.018,1.018,0,0,1,1.318-.608,9.55,9.55,0,0,1,2.949,1.734,11.124,11.124,0,0,1,2.6,3.036,9.48,9.48,0,0,1,.545,1.144A1.015,1.015,0,0,1-161.655,269.446Z" transform="translate(-80.719 -49.573)"/><path class="a" d="M-128.222,418.1a.41.41,0,0,1-.094.037,9.547,9.547,0,0,1-1.89.06c-.237-.016-.474-.035-.71-.057a.361.361,0,0,1-.109-.052c.035-.021.07-.059.107-.062.237-.016.475-.025.712-.035.331-.014.662-.045.993-.037.307.007.613.055.919.086a.25.25,0,0,1,.066.027Z" transform="translate(-111.864 -180.337)"/></g></svg>